<svg width="319" height="83" viewBox="0 0 319 83" fill="none" xmlns="http://www.w3.org/2000/svg">
<path d="M105.741 58H97.8315L109.883 23.0909H119.394L131.428 58H123.519L114.775 31.0682H114.502L105.741 58ZM105.246 44.2784H123.928V50.0398H105.246V44.2784ZM142.755 23.0909V58H135.493V23.0909H142.755ZM148.572 58V31.8182H155.833V58H148.572ZM152.219 28.4432C151.14 28.4432 150.214 28.0852 149.441 27.3693C148.68 26.642 148.299 25.7727 148.299 24.7614C148.299 23.7614 148.68 22.9034 149.441 22.1875C150.214 21.4602 151.14 21.0966 152.219 21.0966C153.299 21.0966 154.219 21.4602 154.981 22.1875C155.753 22.9034 156.14 23.7614 156.14 24.7614C156.14 25.7727 155.753 26.642 154.981 27.3693C154.219 28.0852 153.299 28.4432 152.219 28.4432ZM173.479 58.5114C170.797 58.5114 168.491 57.9432 166.559 56.8068C164.638 55.6591 163.161 54.0682 162.127 52.0341C161.104 50 160.593 47.6591 160.593 45.0114C160.593 42.3295 161.11 39.9773 162.144 37.9545C163.189 35.9205 164.672 34.3352 166.593 33.1989C168.513 32.0511 170.797 31.4773 173.445 31.4773C175.729 31.4773 177.729 31.892 179.445 32.7216C181.161 33.5511 182.519 34.7159 183.519 36.2159C184.519 37.7159 185.07 39.4773 185.172 41.5H178.32C178.127 40.1932 177.616 39.142 176.786 38.3466C175.968 37.5398 174.894 37.1364 173.564 37.1364C172.439 37.1364 171.456 37.4432 170.616 38.0568C169.786 38.6591 169.138 39.5398 168.672 40.6989C168.206 41.858 167.974 43.2614 167.974 44.9091C167.974 46.5795 168.201 48 168.655 49.1705C169.121 50.3409 169.775 51.233 170.616 51.8466C171.456 52.4602 172.439 52.767 173.564 52.767C174.394 52.767 175.138 52.5966 175.797 52.2557C176.468 51.9148 177.019 51.4205 177.451 50.7727C177.894 50.1136 178.184 49.3239 178.32 48.4034H185.172C185.059 50.4034 184.513 52.1648 183.536 53.6875C182.57 55.1989 181.235 56.3807 179.53 57.233C177.826 58.0852 175.809 58.5114 173.479 58.5114ZM189.822 58V31.8182H197.083V58H189.822ZM193.469 28.4432C192.39 28.4432 191.464 28.0852 190.691 27.3693C189.93 26.642 189.549 25.7727 189.549 24.7614C189.549 23.7614 189.93 22.9034 190.691 22.1875C191.464 21.4602 192.39 21.0966 193.469 21.0966C194.549 21.0966 195.469 21.4602 196.231 22.1875C197.003 22.9034 197.39 23.7614 197.39 24.7614C197.39 25.7727 197.003 26.642 196.231 27.3693C195.469 28.0852 194.549 28.4432 193.469 28.4432ZM210.366 58.4943C208.695 58.4943 207.206 58.2045 205.9 57.625C204.593 57.0341 203.559 56.1648 202.797 55.017C202.047 53.858 201.672 52.4148 201.672 50.6875C201.672 49.233 201.939 48.0114 202.474 47.0227C203.008 46.0341 203.735 45.2386 204.655 44.6364C205.576 44.0341 206.621 43.5795 207.792 43.2727C208.974 42.9659 210.212 42.75 211.508 42.625C213.03 42.4659 214.258 42.3182 215.189 42.1818C216.121 42.0341 216.797 41.8182 217.218 41.5341C217.638 41.25 217.849 40.8295 217.849 40.2727V40.1705C217.849 39.0909 217.508 38.2557 216.826 37.6648C216.155 37.0739 215.201 36.7784 213.962 36.7784C212.655 36.7784 211.616 37.0682 210.843 37.6477C210.07 38.2159 209.559 38.9318 209.309 39.7955L202.593 39.25C202.934 37.6591 203.604 36.2841 204.604 35.125C205.604 33.9545 206.894 33.0568 208.474 32.4318C210.064 31.7955 211.905 31.4773 213.996 31.4773C215.451 31.4773 216.843 31.6477 218.172 31.9886C219.513 32.3295 220.701 32.858 221.735 33.5739C222.78 34.2898 223.604 35.2102 224.206 36.3352C224.809 37.4489 225.11 38.7841 225.11 40.3409V58H218.224V54.3693H218.019C217.599 55.1875 217.036 55.9091 216.331 56.5341C215.627 57.1477 214.78 57.6307 213.792 57.983C212.803 58.3239 211.661 58.4943 210.366 58.4943ZM212.445 53.483C213.513 53.483 214.456 53.2727 215.275 52.8523C216.093 52.4205 216.735 51.8409 217.201 51.1136C217.667 50.3864 217.9 49.5625 217.9 48.642V45.8636C217.672 46.0114 217.36 46.1477 216.962 46.2727C216.576 46.3864 216.138 46.4943 215.65 46.5966C215.161 46.6875 214.672 46.7727 214.184 46.8523C213.695 46.9205 213.252 46.983 212.854 47.0398C212.002 47.1648 211.258 47.3636 210.621 47.6364C209.985 47.9091 209.491 48.2784 209.138 48.7443C208.786 49.1989 208.61 49.767 208.61 50.4489C208.61 51.4375 208.968 52.1932 209.684 52.7159C210.411 53.2273 211.331 53.483 212.445 53.483Z" fill="#2691D7"/>
<path d="M248.006 58H240.097L252.148 23.0909H261.66L273.694 58H265.785L257.04 31.0682H256.768L248.006 58ZM247.512 44.2784H266.194V50.0398H247.512V44.2784ZM285.276 23.0909V58H277.895V23.0909H285.276Z" fill="white"/>
<rect x="1.99728" y="2.0035" width="78.8876" height="78.8272" rx="39.4136" transform="matrix(0.999999 0.00174886 -0.00135908 0.999999 0.116007 -0.0034913)" stroke="#2691D7" stroke-width="4"/>
<path d="M37.8573 19L19 62.1392H28.5152L42.0959 29.9774L49.362 46.5397C46.9976 46.5076 41.8018 46.4627 39.9333 46.5397C38.0649 46.6168 36.2138 51.9642 35.5218 54.6283H53.168L56.5416 62.1392H65.6242L46.4209 19H37.8573Z" fill="#2691D7"/>
</svg>
